<svg width="20" height="20" viewBox="0 0 20 20" fill="none" xmlns="http://www.w3.org/2000/svg">
<path fill-rule="evenodd" clip-rule="evenodd" d="M18.3333 9.99996C18.3333 14.6023 14.6023 18.3333 9.99996 18.3333C5.39758 18.3333 1.66663 14.6023 1.66663 9.99996C1.66663 5.39758 5.39758 1.66663 9.99996 1.66663C14.6023 1.66663 18.3333 5.39758 18.3333 9.99996ZM7.47465 7.47467C7.71873 7.23059 8.11445 7.23059 8.35854 7.47467L9.99996 9.11604L11.6413 7.47468C11.8854 7.23061 12.2811 7.23061 12.5252 7.47468C12.7693 7.71876 12.7693 8.11449 12.5252 8.35854L10.8838 9.99996L12.5252 11.6413C12.7693 11.8854 12.7693 12.2811 12.5252 12.5252C12.2811 12.7693 11.8854 12.7693 11.6413 12.5252L9.99996 10.8839L8.35854 12.5252C8.11448 12.7693 7.71874 12.7693 7.47467 12.5252C7.23059 12.2811 7.23059 11.8854 7.47467 11.6414L9.11604 9.99996L7.47465 8.35854C7.23057 8.11448 7.23057 7.71874 7.47465 7.47467Z" fill="#FC4444"/>
</svg>
