<!DOCTYPE svg PUBLIC "-//W3C//DTD SVG 1.1//EN" "http://www.w3.org/Graphics/SVG/1.1/DTD/svg11.dtd">
<!-- Uploaded to: SVG Repo, www.svgrepo.com, Transformed by: SVG Repo Mixer Tools -->
<svg width="800px" height="800px" viewBox="0 0 192 192" xmlns="http://www.w3.org/2000/svg" fill="none">
<g id="SVGRepo_bgCarrier" stroke-width="0"/>
<g id="SVGRepo_tracerCarrier" stroke-linecap="round" stroke-linejoin="round"/>
<g id="SVGRepo_iconCarrier">
<path fill="#DEEAFC" d="M108 108h23.226Z"/>
<path stroke="#DEEAFC" stroke-linecap="round" stroke-linejoin="round" stroke-width="12" d="M108 108h23.226"/>
<path fill="#DEEAFC" d="M148.646 108H168Z"/>
<path stroke="#DEEAFC" stroke-linecap="round" stroke-linejoin="round" stroke-width="12" d="M148.646 108H168"/>
<path fill="#DEEAFC" d="M108 128h11.613Z"/>
<path stroke="#DEEAFC" stroke-linecap="round" stroke-linejoin="round" stroke-width="12" d="M108 128h11.613"/>
<path fill="#DEEAFC" d="M137.032 128H168Z"/>
<path stroke="#DEEAFC" stroke-linecap="round" stroke-linejoin="round" stroke-width="12" d="M137.032 128H168"/>
<path fill="#DEEAFC" d="M108 148h23.226Z"/>
<path stroke="#DEEAFC" stroke-linecap="round" stroke-linejoin="round" stroke-width="12" d="M108 148h23.226"/>
<path fill="#DEEAFC" d="M148.646 148H168Z"/>
<path stroke="#DEEAFC" stroke-linecap="round" stroke-linejoin="round" stroke-width="12" d="M148.646 148H168"/>
<path fill="#DEEAFC" d="M108 168h5.806Z"/>
<path stroke="#DEEAFC" stroke-linecap="round" stroke-linejoin="round" stroke-width="12" d="M108 168h5.806"/>
<path fill="#DEEAFC" d="M131.226 168H168Z"/>
<path stroke="#DEEAFC" stroke-linecap="round" stroke-linejoin="round" stroke-width="12" d="M131.226 168H168"/>
<rect width="62" height="62" x="22" y="22" stroke="#DEEAFC" stroke-width="12" rx="10"/>
<rect width="62" height="62" x="22" y="108" stroke="#DEEAFC" stroke-width="12" rx="10"/>
<rect width="62" height="62" x="108" y="22" stroke="#DEEAFC" stroke-width="12" rx="10"/>
<rect width="22" height="22" x="42" y="42" fill="#DEEAFC" rx="3"/>
<rect width="22" height="22" x="42" y="128" fill="#DEEAFC" rx="3"/>
<rect width="22" height="22" x="128" y="42" fill="#DEEAFC" rx="3"/>
</g>
</svg>