<svg width="33" height="32" viewBox="0 0 33 32" fill="none" xmlns="http://www.w3.org/2000/svg">
<path fill-rule="evenodd" clip-rule="evenodd" d="M7.16675 19.9957C7.71903 19.9957 8.16675 20.4435 8.16675 20.9957V24C8.16675 24.1841 8.31599 24.3333 8.50008 24.3333H24.5C24.6842 24.3333 24.8334 24.1841 24.8334 24V20.9957C24.8334 20.4435 25.2811 19.9957 25.8334 19.9957C26.3858 19.9957 26.8334 20.4435 26.8334 20.9957V24C26.8334 25.2887 25.7887 26.3333 24.5 26.3333H8.50008C7.21141 26.3333 6.16675 25.2887 6.16675 24V20.9957C6.16675 20.4435 6.61447 19.9957 7.16675 19.9957Z" fill="#DEEAFC"/>
<path fill-rule="evenodd" clip-rule="evenodd" d="M16.7698 5.66666C17.322 5.66666 17.7698 6.11438 17.7698 6.66666V17.4475C17.7698 17.9997 17.322 18.4475 16.7698 18.4475C16.2175 18.4475 15.7698 17.9997 15.7698 17.4475V6.66666C15.7698 6.11438 16.2175 5.66666 16.7698 5.66666Z" fill="#DEEAFC"/>
<path fill-rule="evenodd" clip-rule="evenodd" d="M11.5957 14.1675C11.9817 13.7724 12.6148 13.7649 13.0099 14.1509L16.7694 17.824L20.5292 14.1509C20.9241 13.7649 21.5573 13.7724 21.9432 14.1675C22.3292 14.5624 22.3218 15.1956 21.9268 15.5815L17.4684 19.9373C17.0797 20.3169 16.4592 20.3169 16.0706 19.9373L11.6122 15.5815C11.2172 15.1956 11.2098 14.5624 11.5957 14.1675Z" fill="#DEEAFC"/>
</svg>
