<svg width="33" height="32" viewBox="0 0 33 32" fill="none" xmlns="http://www.w3.org/2000/svg">
<path d="M14.2346 18.2599L27.3027 5.19657M14.606 18.8473L17.5692 24.7739C18.2854 26.206 18.6434 26.9221 19.0944 27.1141C19.4859 27.2808 19.9334 27.2505 20.299 27.0329C20.7202 26.7821 20.9788 26.0244 21.4963 24.5091L27.0951 8.11246C27.546 6.79213 27.7714 6.13195 27.6171 5.69523C27.4828 5.31531 27.184 5.01646 26.8042 4.88223C26.3674 4.72794 25.7072 4.95337 24.3868 5.40421L7.99022 11.0031C6.4749 11.5205 5.71723 11.7792 5.46642 12.2004C5.24875 12.566 5.21859 13.0134 5.38523 13.4048C5.57726 13.8559 6.29335 14.214 7.72554 14.93L13.652 17.8933C13.888 18.0113 14.006 18.0703 14.1082 18.1491C14.199 18.2191 14.2803 18.3004 14.3502 18.3911C14.4291 18.4933 14.488 18.6113 14.606 18.8473Z" stroke="#DEEAFC" stroke-width="2.66667" stroke-linecap="round" stroke-linejoin="round"/>
</svg>
