<svg width="27" height="24" viewBox="0 0 27 24" fill="none" xmlns="http://www.w3.org/2000/svg">
<path fill-rule="evenodd" clip-rule="evenodd" d="M18.8333 1.24C18.8332 1.05745 18.8831 0.878358 18.9775 0.722133C19.0719 0.565908 19.2073 0.438512 19.369 0.353757C19.5307 0.269002 19.7125 0.23012 19.8947 0.241328C20.0769 0.252535 20.2526 0.313403 20.4026 0.417335L26.312 4.50933C26.4448 4.60137 26.5534 4.72422 26.6283 4.86738C26.7033 5.01054 26.7425 5.16973 26.7425 5.33133C26.7425 5.49294 26.7033 5.65213 26.6283 5.79529C26.5534 5.93845 26.4448 6.0613 26.312 6.15333L20.4026 10.2453C20.2526 10.3493 20.0769 10.4101 19.8947 10.4213C19.7125 10.4325 19.5307 10.3937 19.369 10.3089C19.2073 10.2242 19.0719 10.0968 18.9775 9.94054C18.8831 9.78431 18.8332 9.60522 18.8333 9.42267V6.66667H2.83329C2.47967 6.66667 2.14053 6.52619 1.89048 6.27614C1.64043 6.02609 1.49996 5.68696 1.49996 5.33333C1.49996 4.97971 1.64043 4.64057 1.89048 4.39053C2.14053 4.14048 2.47967 4 2.83329 4H18.8333V1.24ZM6.59729 13.7507C6.74737 13.6467 6.92303 13.5859 7.10523 13.5747C7.28744 13.5635 7.46923 13.6023 7.63091 13.6871C7.79259 13.7718 7.92799 13.8992 8.02242 14.0555C8.11686 14.2117 8.16673 14.3908 8.16663 14.5733V17.3333H24.1666C24.5202 17.3333 24.8594 17.4738 25.1094 17.7239C25.3595 17.9739 25.5 18.313 25.5 18.6667C25.5 19.0203 25.3595 19.3594 25.1094 19.6095C24.8594 19.8595 24.5202 20 24.1666 20H8.16663V22.756C8.16673 22.9385 8.11686 23.1176 8.02242 23.2739C7.92799 23.4301 7.79259 23.5575 7.63091 23.6422C7.46923 23.727 7.28744 23.7659 7.10523 23.7547C6.92303 23.7435 6.74737 23.6826 6.59729 23.5787L0.687959 19.4867C0.555121 19.3946 0.446565 19.2718 0.371588 19.1286C0.296611 18.9855 0.257446 18.8263 0.257446 18.6647C0.257446 18.5031 0.296611 18.3439 0.371588 18.2007C0.446565 18.0576 0.555121 17.9347 0.687959 17.8427L6.59729 13.7507Z" fill="#DEEAFC"/>
</svg>
